# xmcd
#
# Track frame offsets: 
#        150
#        15734
#        35800
#        54187
#        75303
#        98111
#        115420
#        133298
#        151568
#        167860
#        195482
#
# Disc length: 2820 seconds
#
# Revision: 0
# Processed by: cddbd v1.5.2PL0 Copyright (c) Steve Scherf et al.
# Submitted via: ExactAudioCopyFreeDBPlugin 1.0
#
DISCID=830b020b
DTITLE=Frazey Ford - Indian Ocean
DYEAR=2014
DGENRE=Country Soul
TTITLE0=September Fields
TTITLE1=Runnin'
TTITLE2=You're Not Free
TTITLE3=Done
TTITLE4=Three Golden Trees
TTITLE5=You Got Religion
TTITLE6=Season After Season
TTITLE7=Natural Law
TTITLE8=Weather Pattern
TTITLE9=Indian Ocean
TTITLE10=September Fields (Acoustic)
EXTD=
EXTT0=
EXTT1=
EXTT2=
EXTT3=
EXTT4=
EXTT5=
EXTT6=
EXTT7=
EXTT8=
EXTT9=
EXTT10=
PLAYORDER=
